<?xml version="1.0" encoding="UTF-8" standalone="no"?>
<svg width="77px" height="63px" viewBox="0 0 77 63" version="1.1" xmlns="http://www.w3.org/2000/svg" xmlns:xlink="http://www.w3.org/1999/xlink" xmlns:sketch="http://www.bohemiancoding.com/sketch/ns">
    <!-- Generator: Sketch 3.3.3 (12081) - http://www.bohemiancoding.com/sketch -->
    <title>cq-discovery__unlimited</title>
    <desc>Created with Sketch.</desc>
    <defs></defs>
    <g id="Page-1" stroke="none" stroke-width="1" fill="none" fill-rule="evenodd" sketch:type="MSPage">
        <g id="discovery-screens" sketch:type="MSLayerGroup" transform="translate(-1264.000000, -2704.000000)" fill="#AD53C0">
            <g id="Group" transform="translate(897.000000, 1546.000000)" sketch:type="MSShapeGroup">
                <path d="M383.849575,1196.66667 L374.3802,1196.66667 C372.004248,1196.66667 370.936791,1198.02944 370.936791,1199.72222 L370.936791,1215 L388.153836,1215 L388.153836,1199.72222 C388.153836,1198.02944 386.225527,1196.66667 383.849575,1196.66667 L383.849575,1196.66667 Z M409.675143,1178.33333 L400.205768,1178.33333 C397.829816,1178.33333 396.762359,1179.69611 396.762359,1181.38889 L396.762359,1215 L413.979405,1215 L413.979405,1181.38889 C413.979405,1179.69611 412.051095,1178.33333 409.675143,1178.33333 L409.675143,1178.33333 Z M435.500711,1160 L426.031336,1160 C423.655384,1160 422.587927,1161.36278 422.587927,1163.05556 L422.587927,1215 L439.804973,1215 L439.804973,1163.05556 C439.804973,1161.36278 437.876664,1160 435.500711,1160 L435.500711,1160 Z" id="cq-discovery__unlimited"></path>
            </g>
        </g>
    </g>
</svg>