<?xml version="1.0" encoding="UTF-8" standalone="no"?>
<svg width="96px" height="73px" viewBox="0 0 96 73" version="1.1" xmlns="http://www.w3.org/2000/svg" xmlns:xlink="http://www.w3.org/1999/xlink" xmlns:sketch="http://www.bohemiancoding.com/sketch/ns">
    <!-- Generator: Sketch 3.3.3 (12081) - http://www.bohemiancoding.com/sketch -->
    <title>cq-discovery__graph</title>
    <desc>Created with Sketch.</desc>
    <defs></defs>
    <g id="Page-1" stroke="none" stroke-width="1" fill="none" fill-rule="evenodd" sketch:type="MSPage">
        <g id="discovery-screens" sketch:type="MSLayerGroup" transform="translate(-1254.000000, -2598.000000)" fill="#AD53C0">
            <g id="Group" transform="translate(897.000000, 1546.000000)" sketch:type="MSShapeGroup">
                <path d="M406.057162,1099.7046 C397.327888,1096.65108 394.538757,1094.07545 394.538757,1088.56153 C394.538757,1085.24949 397.204319,1086.33159 398.369399,1080.26813 C398.854849,1077.75381 401.211488,1080.2275 401.661633,1074.48534 C401.661633,1072.19705 400.372984,1071.6283 400.372984,1071.6283 C400.372984,1071.6283 401.026135,1068.24313 401.282099,1065.63648 C401.599848,1062.38869 399.331473,1054 387.212875,1054 C375.103105,1054 372.825903,1062.38869 373.143652,1065.63648 C373.399616,1068.24313 374.052767,1071.6283 374.052767,1071.6283 C374.052767,1071.6283 372.764118,1072.19705 372.764118,1074.48534 C373.223089,1080.2275 375.570902,1077.75381 376.056352,1080.26813 C377.230258,1086.33159 379.89582,1085.24949 379.89582,1088.56153 C379.89582,1094.07545 377.106689,1096.65108 368.377415,1099.7046 C365.711854,1100.63528 360.936791,1102.07636 360.936791,1105.54426 L360.936791,1119 L422.253539,1119 L422.253539,1108.91097 C422.253539,1105.74739 414.812915,1102.76847 406.057162,1099.7046 L406.057162,1099.7046 Z M449.200427,1119 C449.200427,1119 449.0239,1105.01466 448.008868,1103.56472 C446.490734,1101.40642 442.951362,1099.9225 436.384547,1097.62534 C429.835385,1095.33557 427.743537,1093.40403 427.743537,1089.26693 C427.743537,1086.7829 429.738295,1087.59466 430.620932,1083.04835 C430.982813,1081.16114 432.748085,1083.01659 433.083487,1078.71108 C433.083487,1076.99449 432.121414,1076.56756 432.121414,1076.56756 C432.121414,1076.56756 432.61569,1074.02886 432.801044,1072.07369 C433.039355,1069.63767 431.335867,1063.34597 422.253539,1063.34597 C413.162385,1063.34597 411.458896,1069.63767 411.697208,1072.07369 C411.891388,1074.02886 412.376838,1076.56756 412.376838,1076.56756 C412.376838,1076.56756 411.414765,1076.99449 411.414765,1078.71108 C411.758993,1083.01659 413.515439,1081.16114 413.886146,1083.04835 C414.759956,1087.59466 416.763541,1086.7829 416.763541,1089.26693 C416.763541,1092.07966 415.792641,1093.87307 413.109426,1095.45301 C427.408135,1101.44409 429.332283,1102.66506 429.332283,1108.02091 L429.332283,1119 L449.200427,1119 L449.200427,1119 Z" id="cq-discovery__graph"></path>
            </g>
        </g>
    </g>
</svg>