<?xml version="1.0" encoding="UTF-8" standalone="no"?>
<svg width="96px" height="47px" viewBox="0 0 96 47" version="1.1" xmlns="http://www.w3.org/2000/svg" xmlns:xlink="http://www.w3.org/1999/xlink" xmlns:sketch="http://www.bohemiancoding.com/sketch/ns">
    <!-- Generator: Sketch 3.3.3 (12081) - http://www.bohemiancoding.com/sketch -->
    <title>cq-discovery__user</title>
    <desc>Created with Sketch.</desc>
    <defs></defs>
    <g id="Page-1" stroke="none" stroke-width="1" fill="none" fill-rule="evenodd" sketch:type="MSPage">
        <g id="discovery-screens" sketch:type="MSLayerGroup" transform="translate(-1254.000000, -2521.000000)" fill="#AD53C0">
            <g id="Group" transform="translate(897.000000, 1546.000000)" sketch:type="MSShapeGroup">
                <path d="M431.115208,1008.0688 C423.736368,1008.0688 415.165969,1003.27608 409.905456,996.418 C415.165969,989.551089 423.736368,984.7672 431.115208,984.7672 C437.787939,984.7672 441.177263,988.686105 441.177263,996.418 C441.177263,1004.14989 437.787939,1008.0688 431.115208,1008.0688 L431.115208,1008.0688 Z M379.02201,1008.0688 C372.349279,1008.0688 368.959955,1004.14989 368.959955,996.418 C368.959955,988.686105 372.349279,984.7672 379.02201,984.7672 C386.40085,984.7672 394.971249,989.551089 400.231762,996.418 C394.971249,1003.27608 386.40085,1008.0688 379.02201,1008.0688 L379.02201,1008.0688 Z M431.115208,977 C421.944616,977 411.882562,982.110465 405.068609,989.860012 C398.254656,982.110465 388.192602,977 379.02201,977 C370.275084,977 360.936791,982.101638 360.936791,996.418 C360.936791,1010.73436 370.275084,1015.82717 379.02201,1015.836 C388.192602,1015.836 398.254656,1010.72554 405.068609,1002.96716 C411.882562,1010.72554 421.944616,1015.836 431.115208,1015.836 C439.862135,1015.836 449.200427,1010.73436 449.200427,996.418 C449.200427,982.101638 439.862135,977 431.115208,977 L431.115208,977 Z" id="cq-discovery__user"></path>
            </g>
        </g>
    </g>
</svg>