<?xml version="1.0" encoding="UTF-8" standalone="no"?>
<svg width="682px" height="155px" viewBox="0 0 682 155" version="1.1" xmlns="http://www.w3.org/2000/svg" xmlns:xlink="http://www.w3.org/1999/xlink" xmlns:sketch="http://www.bohemiancoding.com/sketch/ns">
    <!-- Generator: Sketch 3.3.3 (12081) - http://www.bohemiancoding.com/sketch -->
    <title>band</title>
    <desc>Created with Sketch.</desc>
    <defs></defs>
    <g id="Page-1" stroke="none" stroke-width="1" fill="none" fill-rule="evenodd" sketch:type="MSPage">
        <g id="discovery-screens" sketch:type="MSLayerGroup" transform="translate(-1179.000000, -1960.000000)">
            <g id="Group" transform="translate(897.000000, 1546.000000)" sketch:type="MSShapeGroup">
                <g id="band" transform="translate(285.436791, 416.000000)">
                    <g id="Group">
                        <path d="M485.791367,58.9022032 L675.25,58.9022032 L651.676806,103.085972 L675.25,146.344649 L485.791367,146.344649 L485.791367,58.9022032 Z" id="Rectangle-106-Copy" fill="#612C6C"></path>
                        <path d="M0,58.9022032 L185.815198,58.9022032 L162.695335,103.085972 L185.815198,146.344649 L0,146.344649 L0,58.9022032 Z" id="Rectangle-106-Copy" fill="#612C6C" transform="translate(92.907599, 102.623426) scale(-1, 1) translate(-92.907599, -102.623426) "></path>
                        <path d="M486.130596,146.67187 L485.953545,59.7044596 L593.341468,116.246734 L486.130596,146.67187 Z" id="Path-164" opacity="0.6" fill="#E06DF7"></path>
                        <path d="M79.118149,147.084092 L78.9410971,60.1166817 L186.329021,116.658956 L79.118149,147.084092 Z" id="Path-164-Copy" opacity="0.6" fill="#E06DF7" transform="translate(132.635059, 103.600387) scale(-1, 1) translate(-132.635059, -103.600387) "></path>
                        <rect id="Rectangle-106" fill="#612C6C" x="331.552608" y="0.607239209" width="263.541817" height="116.589928"></rect>
                        <rect id="Rectangle-106" fill="#612C6C" transform="translate(211.926484, 58.902203) scale(-1, 1) translate(-211.926484, -58.902203) " x="80.1555755" y="0.607239209" width="263.541817" height="116.589928"></rect>
                    </g>
                </g>
            </g>
        </g>
    </g>
</svg>