<?xml version="1.0" encoding="UTF-8" standalone="no"?>
<svg width="478px" height="69px" viewBox="0 0 478 69" version="1.1" xmlns="http://www.w3.org/2000/svg" xmlns:xlink="http://www.w3.org/1999/xlink" xmlns:sketch="http://www.bohemiancoding.com/sketch/ns">
    <!-- Generator: Sketch 3.3.3 (12072) - http://www.bohemiancoding.com/sketch -->
    <title>doscoverylogo</title>
    <desc>Created with Sketch.</desc>
    <defs></defs>
    <g id="Page-1" stroke="none" stroke-width="1" fill="none" fill-rule="evenodd" sketch:type="MSPage">
        <g id="discovery-screens" sketch:type="MSLayerGroup" transform="translate(-1284.000000, -3665.000000)">
            <g id="Group" transform="translate(897.000000, 1546.000000)" sketch:type="MSShapeGroup">
                <g id="doscoverylogo" transform="translate(386.000000, 2118.000000)">
                    <g id="Group-Copy-6" transform="translate(0.936791, 0.963667)">
                        <path d="M257.333803,69 L257.333803,0.818181818" id="Path-94" stroke="#FFFFFF" stroke-width="1.60000002"></path>
                        <path d="M0.819477056,45 L14.7959605,45 C26.5769044,45 34.7164657,36.806889 34.7164657,26.2575892 L34.7164657,26.1504897 C34.7164657,15.60119 26.5769044,7.51517845 14.7959605,7.51517845 L0.819477056,7.51517845 L0.819477056,45 Z M14.7959605,13.5127499 C22.667773,13.5127499 27.8085486,18.9212742 27.8085486,26.2575892 L27.8085486,26.3646887 C27.8085486,33.7010038 22.667773,39.0024286 14.7959605,39.0024286 L7.4060957,39.0024286 L7.4060957,13.5127499 L14.7959605,13.5127499 Z M39.8970889,12.3882053 L46.8585558,12.3882053 L46.8585558,6.22998457 L39.8970889,6.22998457 L39.8970889,12.3882053 Z M40.1648376,45 L46.6443568,45 L46.6443568,16.7257346 L40.1648376,16.7257346 L40.1648376,45 Z M62.6420285,45.5354975 C68.5325005,45.5354975 73.1377785,42.5902615 73.1377785,36.6462398 L73.1377785,36.5391403 C73.1377785,31.4519145 68.4789507,29.5776734 64.3556203,28.2924795 C61.0355361,27.2214846 57.9832007,26.3646887 57.9832007,24.2762487 L57.9832007,24.1691492 C57.9832007,22.5626568 59.4290438,21.3845624 61.9458818,21.3845624 C64.3020706,21.3845624 67.1937568,22.4020076 69.9247938,24.0620497 L72.4951816,19.4567716 C69.4963959,17.475431 65.6408142,16.2437869 62.106531,16.2437869 C56.4838078,16.2437869 52.039179,19.5103213 52.039179,24.8652959 L52.039179,24.9723953 C52.039179,30.3809196 56.6980068,32.0945114 60.8748869,33.2726058 C64.1949711,34.290051 67.1937568,35.0397474 67.1937568,37.235287 L67.1937568,37.3423865 C67.1937568,39.2166275 65.5872645,40.3947219 62.8026777,40.3947219 C59.9109915,40.3947219 56.644457,39.2166275 53.5385718,36.9139885 L50.6468856,41.3050676 C54.1811688,44.0896543 58.6257976,45.5354975 62.6420285,45.5354975 L62.6420285,45.5354975 Z M90.6883929,45.6425969 C96.2040166,45.6425969 99.470551,43.4470574 102.255138,40.3411722 L98.3460064,36.4855905 C96.3111161,38.5740306 94.0620268,39.966324 91.0096913,39.966324 C86.029565,39.966324 82.5488316,35.9500931 82.5488316,30.916417 L82.5488316,30.8093176 C82.5488316,25.882741 86.029565,21.8129604 90.7419426,21.8129604 C93.9549273,21.8129604 96.0433674,23.2588035 98.0247079,25.3472436 L102.094489,21.0097142 C99.4170013,18.118028 96.0969171,16.1366874 90.7954923,16.1366874 C82.2810829,16.1366874 76.0693124,22.8839553 76.0693124,30.916417 L76.0693124,31.0235165 C76.0693124,39.0559783 82.2810829,45.6425969 90.6883929,45.6425969 L90.6883929,45.6425969 Z M118.681207,45.6425969 C127.409816,45.6425969 133.835785,38.9488788 133.835785,30.916417 L133.835785,30.8093176 C133.835785,22.7233061 127.463366,16.1366874 118.788307,16.1366874 C110.113248,16.1366874 103.687279,22.8304055 103.687279,30.916417 L103.687279,31.0235165 C103.687279,39.0559783 110.059699,45.6425969 118.681207,45.6425969 L118.681207,45.6425969 Z M118.788307,39.966324 C113.754631,39.966324 110.166798,35.8429936 110.166798,30.916417 L110.166798,30.8093176 C110.166798,25.882741 113.486882,21.8129604 118.681207,21.8129604 C123.768433,21.8129604 127.356266,25.9362908 127.356266,30.916417 L127.356266,31.0235165 C127.356266,35.8965433 124.036182,39.966324 118.788307,39.966324 L118.788307,39.966324 Z M145.603027,45.214199 L151.439949,45.214199 L163.006694,16.7257346 L156.205877,16.7257346 L148.548263,37.5030357 L140.944199,16.7257346 L133.982732,16.7257346 L145.603027,45.214199 Z M177.719172,45.6425969 C182.913497,45.6425969 186.60843,43.5541569 189.285917,40.3411722 L185.483885,36.9675382 C183.234796,39.1630778 180.985707,40.3411722 177.826272,40.3411722 C173.649392,40.3411722 170.382857,37.7707844 169.68671,33.1655063 L190.464011,33.1655063 C190.517561,32.5229094 190.571111,31.9338622 190.571111,31.344815 C190.571111,23.2052538 186.019383,16.1366874 177.023025,16.1366874 C168.937014,16.1366874 163.207191,22.7768558 163.207191,30.8628673 L163.207191,30.9699668 C163.207191,39.6985752 169.526061,45.6425969 177.719172,45.6425969 L177.719172,45.6425969 Z M169.633161,28.8815267 C170.222208,24.4904476 173.006795,21.4381122 176.969476,21.4381122 C181.253455,21.4381122 183.716744,24.7046466 184.145142,28.8815267 L169.633161,28.8815267 Z M194.948488,45 L201.428007,45 L201.428007,34.2365012 C201.428007,26.7395369 205.390688,23.0446045 211.066961,23.0446045 L211.441809,23.0446045 L211.441809,16.1902372 C206.461683,15.9760382 203.195149,18.8677244 201.428007,23.0981543 L201.428007,16.7257346 L194.948488,16.7257346 L194.948488,45 Z M227.171732,37.7172347 L219.19282,16.7257346 L212.231354,16.7257346 L224.012298,45.0535497 C222.941303,47.4632883 221.816758,48.2665344 219.996067,48.2665344 C218.657323,48.2665344 217.372129,47.8381365 216.194035,47.1955395 L213.998495,52.0150166 C215.979836,53.0860115 218.014726,53.7286084 220.692213,53.7286084 C225.243942,53.7286084 227.76078,51.5866186 230.009869,45.8032462 L241.255315,16.7257346 L234.508048,16.7257346 L227.171732,37.7172347 Z" id="Discovery-Copy" opacity="0.7" fill="#FFFFFF"></path>
                        <path d="M74.2414308,63.5454545 L82.5025562,63.5454545 L82.5025562,61.8112488 L76.1805881,61.8112488 L76.1805881,58.8473336 L81.7142809,58.8473336 L81.7142809,57.1131279 L76.1805881,57.1131279 L76.1805881,54.2438057 L82.4237287,54.2438057 L82.4237287,52.5096 L74.2414308,52.5096 L74.2414308,63.5454545 Z M88.4043203,63.5454545 L92.5191175,63.5454545 C95.9875289,63.5454545 98.3838859,61.1333321 98.3838859,58.0275273 L98.3838859,57.9959963 C98.3838859,54.8901915 95.9875289,52.5096 92.5191175,52.5096 L88.4043203,52.5096 L88.4043203,63.5454545 Z M92.5191175,54.2753367 C94.8366469,54.2753367 96.3501356,55.8676529 96.3501356,58.0275273 L96.3501356,58.0590583 C96.3501356,60.2189327 94.8366469,61.7797178 92.5191175,61.7797178 L90.3434776,61.7797178 L90.3434776,54.2753367 L92.5191175,54.2753367 Z M108.857647,63.7188751 C111.742735,63.7188751 113.603064,62.0634969 113.603064,58.7685061 L113.603064,52.5096 L111.663907,52.5096 L111.663907,58.8630991 C111.663907,60.8968495 110.607618,61.9216074 108.889178,61.9216074 C107.154972,61.9216074 106.098683,60.8337874 106.098683,58.7842716 L106.098683,52.5096 L104.159526,52.5096 L104.159526,58.8630991 C104.159526,62.0634969 105.988325,63.7188751 108.857647,63.7188751 L108.857647,63.7188751 Z M124.991225,63.7346406 C127.056506,63.7346406 128.317747,62.9778963 129.468629,61.7797178 L128.223154,60.5184773 C127.277223,61.4013457 126.41012,61.9373729 125.054287,61.9373729 C122.941709,61.9373729 121.412455,60.1874017 121.412455,58.0275273 L121.412455,57.9959963 C121.412455,55.8361219 122.957474,54.1019162 125.054287,54.1019162 C126.315527,54.1019162 127.261458,54.6537089 128.144326,55.4735152 L129.389801,54.0388541 C128.333512,53.0298617 127.103803,52.3204139 125.070052,52.3204139 C121.727765,52.3204139 119.378704,54.8901915 119.378704,58.0275273 L119.378704,58.0590583 C119.378704,61.2279251 121.775061,63.7346406 124.991225,63.7346406 L124.991225,63.7346406 Z M134.156449,63.5454545 L136.142902,63.5454545 L137.278019,60.8810839 L142.496402,60.8810839 L143.615753,63.5454545 L145.665268,63.5454545 L140.809492,52.4307725 L139.012225,52.4307725 L134.156449,63.5454545 Z M137.987467,59.1626437 L139.879327,54.7483019 L141.786954,59.1626437 L137.987467,59.1626437 Z M152.449901,63.5454545 L154.404824,63.5454545 L154.404824,54.3068677 L157.904766,54.3068677 L157.904766,52.5096 L148.949958,52.5096 L148.949958,54.3068677 L152.449901,54.3068677 L152.449901,63.5454545 Z M163.664641,63.5454545 L165.603798,63.5454545 L165.603798,52.5096 L163.664641,52.5096 L163.664641,63.5454545 Z M177.417627,63.7346406 C180.807211,63.7346406 183.203568,61.1333321 183.203568,58.0275273 L183.203568,57.9959963 C183.203568,54.8901915 180.838742,52.3204139 177.449158,52.3204139 C174.059574,52.3204139 171.663217,54.9217225 171.663217,58.0275273 L171.663217,58.0590583 C171.663217,61.1648631 174.028043,63.7346406 177.417627,63.7346406 L177.417627,63.7346406 Z M177.449158,61.9373729 C175.257753,61.9373729 173.696967,60.1716362 173.696967,58.0275273 L173.696967,57.9959963 C173.696967,55.8518874 175.226222,54.1019162 177.417627,54.1019162 C179.609032,54.1019162 181.169817,55.8834184 181.169817,58.0275273 L181.169817,58.0590583 C181.169817,60.2031672 179.640563,61.9373729 177.449158,61.9373729 L177.449158,61.9373729 Z M189.152628,63.5454545 L191.060255,63.5454545 L191.060255,55.6942323 L197.14574,63.5454545 L198.769587,63.5454545 L198.769587,52.5096 L196.861961,52.5096 L196.861961,60.1401051 L190.949896,52.5096 L189.152628,52.5096 L189.152628,63.5454545 Z" id="EDUCATION" fill="#FFFFFF"></path>
                        <path d="M279.462828,33.0909091 L296.919381,33.0909091 L296.919381,31.425075 L281.267482,31.425075 L281.267482,21.6730047 L295.184137,21.6730047 L295.184137,20.0071706 L281.267482,20.0071706 L281.267482,10.4633296 L296.745857,10.4633296 L296.745857,8.79749548 L279.462828,8.79749548 L279.462828,33.0909091 Z M302.955096,33.0909091 L311.041332,33.0909091 C318.676405,33.0909091 323.951546,27.781063 323.951546,20.9442023 L323.951546,20.8747925 C323.951546,14.0379318 318.676405,8.79749548 311.041332,8.79749548 L302.955096,8.79749548 L302.955096,33.0909091 Z M304.759749,31.425075 L304.759749,10.4633296 L311.041332,10.4633296 C317.808783,10.4633296 322.077483,15.1831928 322.077483,20.9442023 L322.077483,21.013612 C322.077483,26.8093264 317.808783,31.425075 311.041332,31.425075 L304.759749,31.425075 Z M339.912855,33.4726627 C345.812684,33.4726627 349.873155,29.7592409 349.873155,22.7835607 L349.873155,8.79749548 L348.068501,8.79749548 L348.068501,22.99179 C348.068501,28.8569141 344.910357,31.8415335 339.982265,31.8415335 C334.845943,31.8415335 331.757209,28.5445703 331.757209,22.8182656 L331.757209,8.79749548 L329.952555,8.79749548 L329.952555,22.99179 C329.952555,29.7939458 334.082436,33.4726627 339.912855,33.4726627 L339.912855,33.4726627 Z M367.951461,33.5073676 C372.254866,33.5073676 375.031256,31.8068287 377.599417,29.2733727 L376.384746,28.0934069 C373.9207,30.5227482 371.526063,31.8762384 368.020871,31.8762384 C362.225157,31.8762384 357.748227,27.0869654 357.748227,20.9442023 L357.748227,20.8747925 C357.748227,14.7667343 362.155747,10.0121662 367.986166,10.0121662 C371.630178,10.0121662 374.059519,11.5391807 376.176517,13.5867685 L377.460597,12.2679831 C374.961846,9.97746129 372.358981,8.38103696 368.020871,8.38103696 C361.010486,8.38103696 355.874164,14.0726367 355.874164,20.9442023 L355.874164,21.013612 C355.874164,27.9892922 361.010486,33.5073676 367.951461,33.5073676 L367.951461,33.5073676 Z M380.719922,33.0909091 L382.593985,33.0909091 L385.682719,26.2887533 L400.015833,26.2887533 L403.104567,33.0909091 L405.082745,33.0909091 L393.768955,8.6239711 L392.033711,8.6239711 L380.719922,33.0909091 Z M386.446226,24.6576241 L392.866628,10.6021491 L399.252326,24.6576241 L386.446226,24.6576241 Z M414.068374,33.0909091 L415.873028,33.0909091 L415.873028,10.4633296 L424.341017,10.4633296 L424.341017,8.79749548 L405.600384,8.79749548 L405.600384,10.4633296 L414.068374,10.4633296 L414.068374,33.0909091 Z M439.26118,33.5073676 C446.618614,33.5073676 451.512002,27.5728337 451.512002,20.9442023 L451.512002,20.8747925 C451.512002,14.2461611 446.688024,8.38103696 439.33059,8.38103696 C431.973156,8.38103696 427.079769,14.3155709 427.079769,20.9442023 L427.079769,21.013612 C427.079769,27.6422435 431.903746,33.5073676 439.26118,33.5073676 L439.26118,33.5073676 Z M439.33059,31.8762384 C433.326646,31.8762384 428.953832,26.9481459 428.953832,20.9442023 L428.953832,20.8747925 C428.953832,14.8708489 433.257237,10.0121662 439.26118,10.0121662 C445.265124,10.0121662 449.637938,14.9402586 449.637938,20.9442023 L449.637938,21.013612 C449.637938,27.0175557 445.334534,31.8762384 439.33059,31.8762384 L439.33059,31.8762384 Z M457.894765,33.0909091 L459.699418,33.0909091 L459.699418,23.0264949 L467.646835,23.0264949 L475.386023,33.0909091 L477.676544,33.0909091 L469.659718,22.714151 C473.754893,22.158873 476.774218,19.8336462 476.774218,15.7731757 L476.774218,15.7037659 C476.774218,13.9685221 476.08012,12.3373929 474.934859,11.192132 C473.477254,9.73452715 471.082618,8.79749548 468.097999,8.79749548 L457.894765,8.79749548 L457.894765,33.0909091 Z M459.699418,21.3953657 L459.699418,10.4633296 L467.993884,10.4633296 C472.401403,10.4633296 474.969564,12.5109173 474.969564,15.7731757 L474.969564,15.8425854 C474.969564,19.347778 471.95024,21.3953657 467.889769,21.3953657 L459.699418,21.3953657 Z M279.462828,64.0909094 L281.198072,64.0909094 L281.198072,42.5044762 L298.307576,64.0909094 L299.661066,64.0909094 L299.661066,39.7974958 L297.925823,39.7974958 L297.925823,60.9327657 L281.163367,39.7974958 L279.462828,39.7974958 L279.462828,64.0909094 Z M307.119681,64.0909094 L324.576234,64.0909094 L324.576234,62.4250754 L308.924334,62.4250754 L308.924334,52.6730051 L322.84099,52.6730051 L322.84099,51.007171 L308.924334,51.007171 L308.924334,41.4633299 L324.402709,41.4633299 L324.402709,39.7974958 L307.119681,39.7974958 L307.119681,64.0909094 Z M337.344694,64.0909094 L339.149348,64.0909094 L339.149348,41.4633299 L347.617338,41.4633299 L347.617338,39.7974958 L328.876704,39.7974958 L328.876704,41.4633299 L337.344694,41.4633299 L337.344694,64.0909094 Z M360.281683,64.2644338 L361.739288,64.2644338 L368.853788,43.1638689 L375.968288,64.2644338 L377.425893,64.2644338 L386.240931,39.7974958 L384.366868,39.7974958 L376.731795,61.418634 L369.617295,39.7280861 L368.2291,39.7280861 L361.114601,61.418634 L353.479528,39.7974958 L351.466645,39.7974958 L360.281683,64.2644338 Z M401.716372,64.507368 C409.073806,64.507368 413.967193,58.5728341 413.967193,51.9442026 L413.967193,51.8747929 C413.967193,45.2461615 409.143216,39.3810373 401.785782,39.3810373 C394.428348,39.3810373 389.53496,45.3155712 389.53496,51.9442026 L389.53496,52.0136124 C389.53496,58.6422438 394.358938,64.507368 401.716372,64.507368 L401.716372,64.507368 Z M401.785782,62.8762388 C395.781838,62.8762388 391.409024,57.9481463 391.409024,51.9442026 L391.409024,51.8747929 C391.409024,45.8708492 395.712428,41.0121665 401.716372,41.0121665 C407.720316,41.0121665 412.09313,45.940259 412.09313,51.9442026 L412.09313,52.0136124 C412.09313,58.017556 407.789725,62.8762388 401.785782,62.8762388 L401.785782,62.8762388 Z M420.349957,64.0909094 L422.15461,64.0909094 L422.15461,54.0264952 L430.102027,54.0264952 L437.841214,64.0909094 L440.131736,64.0909094 L432.11491,53.7141514 C436.210085,53.1588733 439.229409,50.8336466 439.229409,46.773176 L439.229409,46.7037663 C439.229409,44.9685225 438.535312,43.3373933 437.390051,42.1921323 C435.932446,40.7345275 433.53781,39.7974958 430.55319,39.7974958 L420.349957,39.7974958 L420.349957,64.0909094 Z M422.15461,52.395366 L422.15461,41.4633299 L430.449076,41.4633299 C434.856595,41.4633299 437.424756,43.5109176 437.424756,46.773176 L437.424756,46.8425858 C437.424756,50.3477783 434.405432,52.395366 430.344961,52.395366 L422.15461,52.395366 Z M445.681582,64.0909094 L447.486236,64.0909094 L447.486236,57.9134414 L453.524884,51.8053831 L463.519889,64.0909094 L465.879821,64.0909094 L454.808965,50.5213027 L465.428657,39.7974958 L462.964611,39.7974958 L447.486236,55.7617391 L447.486236,39.7974958 L445.681582,39.7974958 L445.681582,64.0909094 Z" id="EDUCATOR" fill="#FFFFFF"></path>
                    </g>
                </g>
            </g>
        </g>
    </g>
</svg>