<?xml version="1.0" encoding="UTF-8" standalone="no"?>
<svg width="29px" height="29px" viewBox="0 0 29 29" version="1.1" xmlns="http://www.w3.org/2000/svg" xmlns:xlink="http://www.w3.org/1999/xlink" xmlns:sketch="http://www.bohemiancoding.com/sketch/ns">
    <!-- Generator: Sketch 3.3.3 (12081) - http://www.bohemiancoding.com/sketch -->
    <title>welcome_cta7</title>
    <desc>Created with Sketch.</desc>
    <defs></defs>
    <g id="Page-1" stroke="none" stroke-width="1" fill="none" fill-rule="evenodd" sketch:type="MSPage">
        <g id="welcome-post-registration" sketch:type="MSLayerGroup" transform="translate(-624.000000, -777.000000)" fill="#F24185">
            <path d="M627.663269,788.252622 C627.663269,784.060419 631.062257,780.662141 635.251624,780.662141 C639.444535,780.662141 643.180231,784.397837 643.180231,788.590039 C643.180231,792.781887 639.781244,796.18052 635.588333,796.18052 C631.398965,796.18052 627.663269,792.445179 627.663269,788.252622 L627.663269,788.252622 Z M651.658206,800.977736 L644.963016,794.281128 C645.973143,792.622394 646.554409,790.67409 646.554409,788.590039 C646.554409,782.535305 641.308839,777.289027 635.251624,777.289027 C629.197953,777.289027 624.289092,782.197533 624.289092,788.252622 C624.289092,794.30771 629.534662,799.553634 635.588333,799.553634 C637.601497,799.553634 639.487067,799.00852 641.110358,798.061482 L647.844535,804.794596 C648.500231,805.453837 649.570611,805.453837 650.229852,804.794596 L651.899219,803.125229 C652.558459,802.465989 652.317446,801.636622 651.658206,800.977736 L651.658206,800.977736 Z" id="welcome_cta7" sketch:type="MSShapeGroup"></path>
        </g>
    </g>
</svg>