<?xml version="1.0" encoding="UTF-8" standalone="no"?>
<svg width="35px" height="47px" viewBox="0 0 35 47" version="1.1" xmlns="http://www.w3.org/2000/svg" xmlns:xlink="http://www.w3.org/1999/xlink" xmlns:sketch="http://www.bohemiancoding.com/sketch/ns">
    <!-- Generator: Sketch 3.3.3 (12081) - http://www.bohemiancoding.com/sketch -->
    <title>welcome_cta3</title>
    <desc>Created with Sketch.</desc>
    <defs></defs>
    <g id="Page-1" stroke="none" stroke-width="1" fill="none" fill-rule="evenodd" sketch:type="MSPage">
        <g id="welcome-post-registration" sketch:type="MSLayerGroup" transform="translate(-615.000000, -198.000000)" fill="#612C6C">
            <g id="Group" transform="translate(309.000000, 191.000000)" sketch:type="MSShapeGroup">
                <path d="M317.555699,7.79472185 C314.586003,6.22936456 308.728568,9.25353649 307.046062,11.9146921 C306.293997,13.1035344 306.347027,13.963107 306.347027,14.4490571 L306.616999,39.6962887 C306.631462,40.2314124 307.306393,40.9545525 307.884905,41.3113016 C309.090138,42.0489045 327.313269,53.4263088 327.829109,53.7493114 C328.108723,53.9228651 328.436547,54 328.759549,54 C329.034342,54 329.313957,53.9421488 329.564645,53.8168045 C330.109411,53.5468322 330.451697,53.0261713 330.451697,52.4573011 L330.451697,25.9373429 C330.451697,25.3858281 330.128695,24.8752912 329.603213,24.5995337 L309.890413,13.5938234 C310.112176,13.1604214 310.989586,12.2434798 312.599778,11.3993342 C314.301568,10.5098719 315.574295,10.8454089 315.863551,10.9587009 C315.863551,10.9587009 334.785717,21.0850728 335.364229,21.3858991 C335.942741,21.6867254 335.952383,21.7320422 335.952383,22.2469179 L335.952383,47.4097832 C335.952383,48.6680469 337.225109,49.179066 338.160371,49.179066 C339.095632,49.179066 340.093565,48.2630885 340.093565,47.4097832 L340.093565,20.3137234 C340.093565,19.7622085 339.770563,19.2511895 339.245081,18.9754321 L317.555699,7.79472185 Z" id="welcome_cta3"></path>
            </g>
        </g>
    </g>
</svg>