<?xml version="1.0" encoding="UTF-8" standalone="no"?>
<svg width="65px" height="30px" viewBox="0 0 65 30" version="1.1" xmlns="http://www.w3.org/2000/svg" xmlns:xlink="http://www.w3.org/1999/xlink" xmlns:sketch="http://www.bohemiancoding.com/sketch/ns">
    <!-- Generator: Sketch 3.3.3 (12081) - http://www.bohemiancoding.com/sketch -->
    <title>welcome_cta2</title>
    <desc>Created with Sketch.</desc>
    <defs></defs>
    <g id="Page-1" stroke="none" stroke-width="1" fill="none" fill-rule="evenodd" sketch:type="MSPage">
        <g id="welcome-post-registration" sketch:type="MSLayerGroup" transform="translate(-463.000000, -208.000000)" fill="#F24185">
            <g id="Group" transform="translate(309.000000, 191.000000)" sketch:type="MSShapeGroup">
                <path d="M204,41 C199.029231,41 195,37.1946154 195,32.5 C195,27.8053846 199.029231,24 204,24 C208.970769,24 213,27.8053846 213,32.5 C213,37.1946154 208.970769,41 204,41 L204,41 Z M161,32.5 C161,27.8053846 165.029231,24 170,24 C174.970769,24 179,27.8053846 179,32.5 C179,37.1946154 174.970769,41 170,41 C165.029231,41 161,37.1946154 161,32.5 L161,32.5 Z M204.05,17 C195.7937,17 189.1,23.7108696 189.1,32 C189.1,35.1434783 190.06785,38.0652174 191.7182,40.4782609 L181.28245,40.4782609 C182.9328,38.0652174 183.9,35.1434783 183.9,32 C183.9,23.7108696 177.20695,17 168.95,17 C160.6937,17 154,23.7108696 154,32 C154,40.2826087 160.6937,47 168.95,47 L204.05,47 C212.30695,47 219,40.2826087 219,32 C219,23.7108696 212.30695,17 204.05,17 L204.05,17 Z" id="welcome_cta2"></path>
            </g>
        </g>
    </g>
</svg>