<?xml version="1.0" encoding="UTF-8" standalone="no"?>
<svg width="184px" height="184px" viewBox="0 0 184 184" version="1.1" xmlns="http://www.w3.org/2000/svg" xmlns:xlink="http://www.w3.org/1999/xlink" xmlns:sketch="http://www.bohemiancoding.com/sketch/ns">
    <!-- Generator: Sketch 3.3.3 (12081) - http://www.bohemiancoding.com/sketch -->
    <title>welcome_cta_star</title>
    <desc>Created with Sketch.</desc>
    <defs></defs>
    <g id="Page-1" stroke="none" stroke-width="1" fill="none" fill-rule="evenodd" sketch:type="MSPage">
        <g id="welcome-post-registration" sketch:type="MSLayerGroup" transform="translate(-865.000000, -21.000000)" fill="#612C6C">
            <polygon id="welcome_cta_star" sketch:type="MSShapeGroup" points="957 194.179366 946.699268 204.421523 938.935892 192.14403 926.614326 199.837266 921.777593 186.140082 908.053049 190.898626 906.385493 176.468584 891.946176 178.053824 893.531416 163.614507 879.101374 161.946951 883.859918 148.222407 870.162734 143.385674 877.85597 131.064108 865.578477 123.300732 875.820634 113 865.578477 102.699268 877.85597 94.9358916 870.162734 82.6143263 883.859918 77.777593 879.101374 64.053049 893.531416 62.3854929 891.946176 47.9461761 906.385493 49.5314156 908.053049 35.1013737 921.777593 39.8599181 926.614326 26.1627336 938.935892 33.8559698 946.699268 21.5784767 957 31.8206336 967.300732 21.5784767 975.064108 33.8559698 987.385674 26.1627336 992.222407 39.8599181 1005.94695 35.1013737 1007.61451 49.5314156 1022.05382 47.9461761 1020.46858 62.3854929 1034.89863 64.053049 1030.14008 77.777593 1043.83727 82.6143263 1036.14403 94.9358916 1048.42152 102.699268 1038.17937 113 1048.42152 123.300732 1036.14403 131.064108 1043.83727 143.385674 1030.14008 148.222407 1034.89863 161.946951 1020.46858 163.614507 1022.05382 178.053824 1007.61451 176.468584 1005.94695 190.898626 992.222407 186.140082 987.385674 199.837266 975.064108 192.14403 967.300732 204.421523 "></polygon>
        </g>
    </g>
</svg>